<mxfile host="app.diagrams.net" modified="2023-10-25T09:44:44.281Z" agent="Mozilla/5.0 (Windows NT 10.0; Win64; x64) AppleWebKit/537.36 (KHTML, like Gecko) Chrome/118.0.0.0 Safari/537.36" etag="jaamiLGXVl8DhZYz0K2E" version="22.0.8" type="device">
  <diagram id="R2lEEEUBdFMjLlhIrx00" name="Page-1">
    <mxGraphModel dx="1050" dy="662" grid="1" gridSize="10" guides="1" tooltips="1" connect="1" arrows="1" fold="1" page="1" pageScale="1" pageWidth="850" pageHeight="1100" math="0" shadow="0" extFonts="Permanent Marker^https://fonts.googleapis.com/css?family=Permanent+Marker">
      <root>
        <mxCell id="0" />
        <mxCell id="1" parent="0" />
        <mxCell id="Sl9PUTFVlgDmUP3QOlVl-14" style="edgeStyle=orthogonalEdgeStyle;rounded=0;orthogonalLoop=1;jettySize=auto;html=1;exitX=0;exitY=0.5;exitDx=0;exitDy=0;entryX=1;entryY=0.25;entryDx=0;entryDy=0;" parent="1" source="Sl9PUTFVlgDmUP3QOlVl-11" target="Sl9PUTFVlgDmUP3QOlVl-44" edge="1">
          <mxGeometry relative="1" as="geometry">
            <mxPoint x="150" y="142.5" as="targetPoint" />
          </mxGeometry>
        </mxCell>
        <mxCell id="Sl9PUTFVlgDmUP3QOlVl-15" style="edgeStyle=orthogonalEdgeStyle;rounded=0;orthogonalLoop=1;jettySize=auto;html=1;exitX=1;exitY=0.5;exitDx=0;exitDy=0;entryX=0;entryY=0.25;entryDx=0;entryDy=0;" parent="1" source="Sl9PUTFVlgDmUP3QOlVl-11" target="Sl9PUTFVlgDmUP3QOlVl-46" edge="1">
          <mxGeometry relative="1" as="geometry">
            <mxPoint x="340.0000000000002" y="142.5" as="targetPoint" />
          </mxGeometry>
        </mxCell>
        <mxCell id="Sl9PUTFVlgDmUP3QOlVl-11" value="" style="rhombus;whiteSpace=wrap;html=1;" parent="1" vertex="1">
          <mxGeometry x="210" y="100" width="80" height="85" as="geometry" />
        </mxCell>
        <mxCell id="Sl9PUTFVlgDmUP3QOlVl-13" value="Places" style="text;html=1;strokeColor=none;fillColor=none;align=center;verticalAlign=middle;whiteSpace=wrap;rounded=0;" parent="1" vertex="1">
          <mxGeometry x="220" y="110" width="60" height="30" as="geometry" />
        </mxCell>
        <mxCell id="Sl9PUTFVlgDmUP3QOlVl-18" style="edgeStyle=orthogonalEdgeStyle;rounded=0;orthogonalLoop=1;jettySize=auto;html=1;exitX=1;exitY=0.5;exitDx=0;exitDy=0;entryX=0;entryY=0.5;entryDx=0;entryDy=0;" parent="1" source="Sl9PUTFVlgDmUP3QOlVl-16" target="Sl9PUTFVlgDmUP3QOlVl-49" edge="1">
          <mxGeometry relative="1" as="geometry">
            <mxPoint x="340.0000000000002" y="365" as="targetPoint" />
          </mxGeometry>
        </mxCell>
        <mxCell id="Sl9PUTFVlgDmUP3QOlVl-19" style="edgeStyle=orthogonalEdgeStyle;rounded=0;orthogonalLoop=1;jettySize=auto;html=1;exitX=0;exitY=0.5;exitDx=0;exitDy=0;entryX=0.75;entryY=1;entryDx=0;entryDy=0;" parent="1" source="Sl9PUTFVlgDmUP3QOlVl-16" target="Sl9PUTFVlgDmUP3QOlVl-44" edge="1">
          <mxGeometry relative="1" as="geometry">
            <mxPoint x="100" y="247.5" as="targetPoint" />
          </mxGeometry>
        </mxCell>
        <mxCell id="Sl9PUTFVlgDmUP3QOlVl-16" value="" style="rhombus;whiteSpace=wrap;html=1;" parent="1" vertex="1">
          <mxGeometry x="200" y="322.5" width="80" height="85" as="geometry" />
        </mxCell>
        <mxCell id="Sl9PUTFVlgDmUP3QOlVl-17" value="Owns" style="text;html=1;strokeColor=none;fillColor=none;align=center;verticalAlign=middle;whiteSpace=wrap;rounded=0;" parent="1" vertex="1">
          <mxGeometry x="210" y="330" width="60" height="30" as="geometry" />
        </mxCell>
        <mxCell id="Sl9PUTFVlgDmUP3QOlVl-22" style="edgeStyle=orthogonalEdgeStyle;rounded=0;orthogonalLoop=1;jettySize=auto;html=1;exitX=1;exitY=0.5;exitDx=0;exitDy=0;entryX=0;entryY=0.25;entryDx=0;entryDy=0;" parent="1" source="Sl9PUTFVlgDmUP3QOlVl-20" target="Sl9PUTFVlgDmUP3QOlVl-56" edge="1">
          <mxGeometry relative="1" as="geometry">
            <mxPoint x="340.0000000000002" y="594.9999999999998" as="targetPoint" />
          </mxGeometry>
        </mxCell>
        <mxCell id="Sl9PUTFVlgDmUP3QOlVl-23" style="edgeStyle=orthogonalEdgeStyle;rounded=0;orthogonalLoop=1;jettySize=auto;html=1;exitX=0;exitY=0.5;exitDx=0;exitDy=0;entryX=0.25;entryY=1;entryDx=0;entryDy=0;" parent="1" source="Sl9PUTFVlgDmUP3QOlVl-20" target="Sl9PUTFVlgDmUP3QOlVl-44" edge="1">
          <mxGeometry relative="1" as="geometry">
            <mxPoint x="75" y="247.5" as="targetPoint" />
          </mxGeometry>
        </mxCell>
        <mxCell id="Sl9PUTFVlgDmUP3QOlVl-20" value="" style="rhombus;whiteSpace=wrap;html=1;" parent="1" vertex="1">
          <mxGeometry x="190" y="470" width="90" height="97.5" as="geometry" />
        </mxCell>
        <mxCell id="Sl9PUTFVlgDmUP3QOlVl-21" value="Provides" style="text;html=1;strokeColor=none;fillColor=none;align=center;verticalAlign=middle;whiteSpace=wrap;rounded=0;" parent="1" vertex="1">
          <mxGeometry x="205" y="490" width="60" height="30" as="geometry" />
        </mxCell>
        <mxCell id="Sl9PUTFVlgDmUP3QOlVl-27" style="edgeStyle=orthogonalEdgeStyle;rounded=0;orthogonalLoop=1;jettySize=auto;html=1;exitX=0;exitY=0.5;exitDx=0;exitDy=0;entryX=1;entryY=0.25;entryDx=0;entryDy=0;" parent="1" source="Sl9PUTFVlgDmUP3QOlVl-24" target="Sl9PUTFVlgDmUP3QOlVl-50" edge="1">
          <mxGeometry relative="1" as="geometry">
            <mxPoint x="440.0000000000002" y="365" as="targetPoint" />
            <Array as="points">
              <mxPoint x="510" y="350" />
              <mxPoint x="480" y="350" />
              <mxPoint x="480" y="339" />
            </Array>
          </mxGeometry>
        </mxCell>
        <mxCell id="Sl9PUTFVlgDmUP3QOlVl-24" value="" style="rhombus;whiteSpace=wrap;html=1;" parent="1" vertex="1">
          <mxGeometry x="510" y="316.25" width="90" height="97.5" as="geometry" />
        </mxCell>
        <mxCell id="Sl9PUTFVlgDmUP3QOlVl-25" value="Contains" style="text;html=1;strokeColor=none;fillColor=none;align=center;verticalAlign=middle;whiteSpace=wrap;rounded=0;" parent="1" vertex="1">
          <mxGeometry x="525" y="340" width="60" height="22.5" as="geometry" />
        </mxCell>
        <mxCell id="Sl9PUTFVlgDmUP3QOlVl-32" style="edgeStyle=orthogonalEdgeStyle;rounded=0;orthogonalLoop=1;jettySize=auto;html=1;exitX=0;exitY=0.5;exitDx=0;exitDy=0;entryX=1;entryY=0.25;entryDx=0;entryDy=0;" parent="1" source="Sl9PUTFVlgDmUP3QOlVl-28" target="Sl9PUTFVlgDmUP3QOlVl-46" edge="1">
          <mxGeometry relative="1" as="geometry">
            <mxPoint x="440.0000000000002" y="142.5" as="targetPoint" />
          </mxGeometry>
        </mxCell>
        <mxCell id="uFJmGA58Sdm5VQ9mYOz5-2" style="edgeStyle=orthogonalEdgeStyle;rounded=0;orthogonalLoop=1;jettySize=auto;html=1;exitX=1;exitY=0.5;exitDx=0;exitDy=0;entryX=0;entryY=0.25;entryDx=0;entryDy=0;" parent="1" source="Sl9PUTFVlgDmUP3QOlVl-28" target="Sl9PUTFVlgDmUP3QOlVl-52" edge="1">
          <mxGeometry relative="1" as="geometry" />
        </mxCell>
        <mxCell id="Sl9PUTFVlgDmUP3QOlVl-28" value="" style="rhombus;whiteSpace=wrap;html=1;" parent="1" vertex="1">
          <mxGeometry x="490" y="87.5" width="90" height="97.5" as="geometry" />
        </mxCell>
        <mxCell id="Sl9PUTFVlgDmUP3QOlVl-29" value="Chooses" style="text;html=1;strokeColor=none;fillColor=none;align=center;verticalAlign=middle;whiteSpace=wrap;rounded=0;" parent="1" vertex="1">
          <mxGeometry x="505" y="111.25" width="60" height="22.5" as="geometry" />
        </mxCell>
        <mxCell id="Sl9PUTFVlgDmUP3QOlVl-35" style="edgeStyle=orthogonalEdgeStyle;rounded=0;orthogonalLoop=1;jettySize=auto;html=1;exitX=1;exitY=0.5;exitDx=0;exitDy=0;entryX=0;entryY=0.25;entryDx=0;entryDy=0;" parent="1" source="Sl9PUTFVlgDmUP3QOlVl-33" target="Sl9PUTFVlgDmUP3QOlVl-58" edge="1">
          <mxGeometry relative="1" as="geometry">
            <mxPoint x="180" y="632.5000000000002" as="targetPoint" />
          </mxGeometry>
        </mxCell>
        <mxCell id="Sl9PUTFVlgDmUP3QOlVl-36" style="edgeStyle=orthogonalEdgeStyle;rounded=0;orthogonalLoop=1;jettySize=auto;html=1;exitX=0;exitY=0.5;exitDx=0;exitDy=0;entryX=0;entryY=0.5;entryDx=0;entryDy=0;" parent="1" source="Sl9PUTFVlgDmUP3QOlVl-33" target="Sl9PUTFVlgDmUP3QOlVl-43" edge="1">
          <mxGeometry relative="1" as="geometry">
            <mxPoint x="10" y="130" as="targetPoint" />
          </mxGeometry>
        </mxCell>
        <mxCell id="Sl9PUTFVlgDmUP3QOlVl-33" value="" style="rhombus;whiteSpace=wrap;html=1;" parent="1" vertex="1">
          <mxGeometry x="50" y="567.5" width="90" height="97.5" as="geometry" />
        </mxCell>
        <mxCell id="Sl9PUTFVlgDmUP3QOlVl-34" value="Creates" style="text;html=1;strokeColor=none;fillColor=none;align=center;verticalAlign=middle;whiteSpace=wrap;rounded=0;" parent="1" vertex="1">
          <mxGeometry x="65" y="590" width="60" height="22.5" as="geometry" />
        </mxCell>
        <mxCell id="Sl9PUTFVlgDmUP3QOlVl-40" style="edgeStyle=orthogonalEdgeStyle;rounded=0;orthogonalLoop=1;jettySize=auto;html=1;exitX=1;exitY=0.5;exitDx=0;exitDy=0;entryX=0;entryY=0.5;entryDx=0;entryDy=0;" parent="1" source="Sl9PUTFVlgDmUP3QOlVl-37" target="Sl9PUTFVlgDmUP3QOlVl-54" edge="1">
          <mxGeometry relative="1" as="geometry">
            <mxPoint x="650" y="571.2499999999998" as="targetPoint" />
          </mxGeometry>
        </mxCell>
        <mxCell id="Sl9PUTFVlgDmUP3QOlVl-41" style="edgeStyle=orthogonalEdgeStyle;rounded=0;orthogonalLoop=1;jettySize=auto;html=1;exitX=0;exitY=0.5;exitDx=0;exitDy=0;entryX=1;entryY=0.5;entryDx=0;entryDy=0;" parent="1" source="Sl9PUTFVlgDmUP3QOlVl-37" target="Sl9PUTFVlgDmUP3QOlVl-50" edge="1">
          <mxGeometry relative="1" as="geometry">
            <mxPoint x="440.0000000000002" y="417.5" as="targetPoint" />
          </mxGeometry>
        </mxCell>
        <mxCell id="Sl9PUTFVlgDmUP3QOlVl-37" value="" style="rhombus;whiteSpace=wrap;html=1;" parent="1" vertex="1">
          <mxGeometry x="505" y="490" width="90" height="97.5" as="geometry" />
        </mxCell>
        <mxCell id="Sl9PUTFVlgDmUP3QOlVl-38" value="Calculates" style="text;html=1;strokeColor=none;fillColor=none;align=center;verticalAlign=middle;whiteSpace=wrap;rounded=0;" parent="1" vertex="1">
          <mxGeometry x="520" y="513.75" width="60" height="22.5" as="geometry" />
        </mxCell>
        <mxCell id="Sl9PUTFVlgDmUP3QOlVl-43" value="Company" style="swimlane;childLayout=stackLayout;horizontal=1;startSize=50;horizontalStack=0;rounded=1;fontSize=14;fontStyle=0;strokeWidth=2;resizeParent=0;resizeLast=1;shadow=0;dashed=0;align=center;arcSize=4;whiteSpace=wrap;html=1;" parent="1" vertex="1">
          <mxGeometry x="50" y="50" width="120" height="150" as="geometry" />
        </mxCell>
        <mxCell id="Sl9PUTFVlgDmUP3QOlVl-44" value="+company&lt;u&gt;Id&lt;/u&gt;&lt;br&gt;+companyName&lt;br&gt;+password" style="align=left;strokeColor=none;fillColor=none;spacingLeft=4;fontSize=12;verticalAlign=top;resizable=0;rotatable=0;part=1;html=1;" parent="Sl9PUTFVlgDmUP3QOlVl-43" vertex="1">
          <mxGeometry y="50" width="120" height="100" as="geometry" />
        </mxCell>
        <mxCell id="Sl9PUTFVlgDmUP3QOlVl-45" value="Order" style="swimlane;childLayout=stackLayout;horizontal=1;startSize=50;horizontalStack=0;rounded=1;fontSize=14;fontStyle=0;strokeWidth=2;resizeParent=0;resizeLast=1;shadow=0;dashed=0;align=center;arcSize=4;whiteSpace=wrap;html=1;" parent="1" vertex="1">
          <mxGeometry x="331" y="61.25" width="120" height="150" as="geometry" />
        </mxCell>
        <mxCell id="Sl9PUTFVlgDmUP3QOlVl-46" value="&lt;div style=&quot;font-size: 11px;&quot;&gt;&lt;font style=&quot;font-size: 11px;&quot;&gt;+&lt;u&gt;orderID&lt;/u&gt;&lt;/font&gt;&lt;/div&gt;&lt;div style=&quot;font-size: 11px;&quot;&gt;&lt;font style=&quot;font-size: 11px;&quot;&gt;+orderType&lt;/font&gt;&lt;/div&gt;&lt;div style=&quot;font-size: 11px;&quot;&gt;&lt;font style=&quot;font-size: 11px;&quot;&gt;+quantity&lt;/font&gt;&lt;/div&gt;&lt;div style=&quot;font-size: 11px;&quot;&gt;&lt;font style=&quot;font-size: 11px;&quot;&gt;+price&lt;/font&gt;&lt;/div&gt;" style="align=left;strokeColor=none;fillColor=none;spacingLeft=4;fontSize=12;verticalAlign=top;resizable=0;rotatable=0;part=1;html=1;" parent="Sl9PUTFVlgDmUP3QOlVl-45" vertex="1">
          <mxGeometry y="50" width="120" height="100" as="geometry" />
        </mxCell>
        <mxCell id="Sl9PUTFVlgDmUP3QOlVl-47" value="Financial_Instrument" style="swimlane;childLayout=stackLayout;horizontal=1;startSize=50;horizontalStack=0;rounded=1;fontSize=14;fontStyle=0;strokeWidth=2;resizeParent=0;resizeLast=1;shadow=0;dashed=0;align=center;arcSize=4;whiteSpace=wrap;html=1;" parent="1" vertex="1">
          <mxGeometry x="665" y="250" width="150" height="155" as="geometry" />
        </mxCell>
        <mxCell id="Sl9PUTFVlgDmUP3QOlVl-48" value="+&lt;u&gt;instrumentId&lt;/u&gt;&lt;br&gt;+instrumentType&lt;br&gt;+asset" style="align=left;strokeColor=none;fillColor=none;spacingLeft=4;fontSize=12;verticalAlign=top;resizable=0;rotatable=0;part=1;html=1;" parent="Sl9PUTFVlgDmUP3QOlVl-47" vertex="1">
          <mxGeometry y="50" width="150" height="105" as="geometry" />
        </mxCell>
        <mxCell id="Sl9PUTFVlgDmUP3QOlVl-49" value="Portfolio" style="swimlane;childLayout=stackLayout;horizontal=1;startSize=50;horizontalStack=0;rounded=1;fontSize=14;fontStyle=0;strokeWidth=2;resizeParent=0;resizeLast=1;shadow=0;dashed=0;align=center;arcSize=4;whiteSpace=wrap;html=1;" parent="1" vertex="1">
          <mxGeometry x="330" y="263.75" width="120" height="150" as="geometry" />
        </mxCell>
        <mxCell id="Sl9PUTFVlgDmUP3QOlVl-50" value="+&lt;u&gt;portfolioId&lt;/u&gt;" style="align=left;strokeColor=none;fillColor=none;spacingLeft=4;fontSize=12;verticalAlign=top;resizable=0;rotatable=0;part=1;html=1;" parent="Sl9PUTFVlgDmUP3QOlVl-49" vertex="1">
          <mxGeometry y="50" width="120" height="100" as="geometry" />
        </mxCell>
        <mxCell id="Sl9PUTFVlgDmUP3QOlVl-51" value="Trades" style="swimlane;childLayout=stackLayout;horizontal=1;startSize=50;horizontalStack=0;rounded=1;fontSize=14;fontStyle=0;strokeWidth=2;resizeParent=0;resizeLast=1;shadow=0;dashed=0;align=center;arcSize=4;whiteSpace=wrap;html=1;" parent="1" vertex="1">
          <mxGeometry x="680" y="60" width="120" height="150" as="geometry" />
        </mxCell>
        <mxCell id="Sl9PUTFVlgDmUP3QOlVl-52" value="&lt;div&gt;+&lt;u&gt;tradeID&lt;/u&gt;&lt;/div&gt;&lt;div&gt;&lt;span style=&quot;background-color: initial;&quot;&gt;+timestamp&lt;/span&gt;&lt;/div&gt;&lt;div&gt;+price&lt;/div&gt;&lt;div&gt;+quantity&lt;/div&gt;" style="align=left;strokeColor=none;fillColor=none;spacingLeft=4;fontSize=12;verticalAlign=top;resizable=0;rotatable=0;part=1;html=1;" parent="Sl9PUTFVlgDmUP3QOlVl-51" vertex="1">
          <mxGeometry y="50" width="120" height="100" as="geometry" />
        </mxCell>
        <mxCell id="Sl9PUTFVlgDmUP3QOlVl-53" value="Risk_Metric" style="swimlane;childLayout=stackLayout;horizontal=1;startSize=50;horizontalStack=0;rounded=1;fontSize=14;fontStyle=0;strokeWidth=2;resizeParent=0;resizeLast=1;shadow=0;dashed=0;align=center;arcSize=4;whiteSpace=wrap;html=1;" parent="1" vertex="1">
          <mxGeometry x="700" y="450" width="120" height="150" as="geometry" />
        </mxCell>
        <mxCell id="Sl9PUTFVlgDmUP3QOlVl-54" value="&lt;div&gt;+&lt;u&gt;metricId&lt;/u&gt;&amp;nbsp;&lt;/div&gt;&lt;div&gt;+type&lt;/div&gt;&lt;div&gt;+value&lt;/div&gt;" style="align=left;strokeColor=none;fillColor=none;spacingLeft=4;fontSize=12;verticalAlign=top;resizable=0;rotatable=0;part=1;html=1;" parent="Sl9PUTFVlgDmUP3QOlVl-53" vertex="1">
          <mxGeometry y="50" width="120" height="100" as="geometry" />
        </mxCell>
        <mxCell id="Sl9PUTFVlgDmUP3QOlVl-55" value="Collateral" style="swimlane;childLayout=stackLayout;horizontal=1;startSize=50;horizontalStack=0;rounded=1;fontSize=14;fontStyle=0;strokeWidth=2;resizeParent=0;resizeLast=1;shadow=0;dashed=0;align=center;arcSize=4;whiteSpace=wrap;html=1;" parent="1" vertex="1">
          <mxGeometry x="350" y="541.25" width="120" height="150" as="geometry" />
        </mxCell>
        <mxCell id="Sl9PUTFVlgDmUP3QOlVl-56" value="+&lt;u&gt;collateralId&lt;/u&gt;&lt;br&gt;+amount&lt;br&gt;+type" style="align=left;strokeColor=none;fillColor=none;spacingLeft=4;fontSize=12;verticalAlign=top;resizable=0;rotatable=0;part=1;html=1;" parent="Sl9PUTFVlgDmUP3QOlVl-55" vertex="1">
          <mxGeometry y="50" width="120" height="100" as="geometry" />
        </mxCell>
        <mxCell id="Sl9PUTFVlgDmUP3QOlVl-57" value="Logs" style="swimlane;childLayout=stackLayout;horizontal=1;startSize=50;horizontalStack=0;rounded=1;fontSize=14;fontStyle=0;strokeWidth=2;resizeParent=0;resizeLast=1;shadow=0;dashed=0;align=center;arcSize=4;whiteSpace=wrap;html=1;" parent="1" vertex="1">
          <mxGeometry x="180" y="600" width="120" height="150" as="geometry" />
        </mxCell>
        <mxCell id="Sl9PUTFVlgDmUP3QOlVl-58" value="+&lt;u&gt;logId&lt;/u&gt;&lt;br&gt;+logTimestamp&lt;br&gt;+activityDescription" style="align=left;strokeColor=none;fillColor=none;spacingLeft=4;fontSize=12;verticalAlign=top;resizable=0;rotatable=0;part=1;html=1;" parent="Sl9PUTFVlgDmUP3QOlVl-57" vertex="1">
          <mxGeometry y="50" width="120" height="100" as="geometry" />
        </mxCell>
        <mxCell id="Sl9PUTFVlgDmUP3QOlVl-59" value="1,n" style="text;html=1;strokeColor=none;fillColor=none;align=center;verticalAlign=middle;whiteSpace=wrap;rounded=0;" parent="1" vertex="1">
          <mxGeometry x="170" y="107.5" width="60" height="30" as="geometry" />
        </mxCell>
        <mxCell id="Sl9PUTFVlgDmUP3QOlVl-60" value="1,1" style="text;html=1;strokeColor=none;fillColor=none;align=center;verticalAlign=middle;whiteSpace=wrap;rounded=0;" parent="1" vertex="1">
          <mxGeometry x="280" y="107.5" width="60" height="30" as="geometry" />
        </mxCell>
        <mxCell id="Sl9PUTFVlgDmUP3QOlVl-61" value="1,n" style="text;html=1;strokeColor=none;fillColor=none;align=center;verticalAlign=middle;whiteSpace=wrap;rounded=0;" parent="1" vertex="1">
          <mxGeometry x="445" y="103.75" width="60" height="30" as="geometry" />
        </mxCell>
        <mxCell id="Sl9PUTFVlgDmUP3QOlVl-62" value="1,1" style="text;html=1;strokeColor=none;fillColor=none;align=center;verticalAlign=middle;whiteSpace=wrap;rounded=0;" parent="1" vertex="1">
          <mxGeometry x="570" y="87.5" width="60" height="30" as="geometry" />
        </mxCell>
        <mxCell id="Sl9PUTFVlgDmUP3QOlVl-63" value="1,1" style="text;html=1;strokeColor=none;fillColor=none;align=center;verticalAlign=middle;whiteSpace=wrap;rounded=0;" parent="1" vertex="1">
          <mxGeometry x="145" y="330" width="60" height="30" as="geometry" />
        </mxCell>
        <mxCell id="Sl9PUTFVlgDmUP3QOlVl-64" value="1,n" style="text;html=1;strokeColor=none;fillColor=none;align=center;verticalAlign=middle;whiteSpace=wrap;rounded=0;" parent="1" vertex="1">
          <mxGeometry x="470" y="323.75" width="60" height="30" as="geometry" />
        </mxCell>
        <mxCell id="uFJmGA58Sdm5VQ9mYOz5-1" style="edgeStyle=orthogonalEdgeStyle;rounded=0;orthogonalLoop=1;jettySize=auto;html=1;exitX=0;exitY=1;exitDx=0;exitDy=0;entryX=0;entryY=0.5;entryDx=0;entryDy=0;" parent="1" source="Sl9PUTFVlgDmUP3QOlVl-65" target="Sl9PUTFVlgDmUP3QOlVl-48" edge="1">
          <mxGeometry relative="1" as="geometry">
            <Array as="points">
              <mxPoint x="600" y="386" />
              <mxPoint x="640" y="386" />
              <mxPoint x="640" y="353" />
            </Array>
          </mxGeometry>
        </mxCell>
        <mxCell id="Sl9PUTFVlgDmUP3QOlVl-65" value="1,1" style="text;html=1;strokeColor=none;fillColor=none;align=center;verticalAlign=middle;whiteSpace=wrap;rounded=0;" parent="1" vertex="1">
          <mxGeometry x="600" y="336.25" width="60" height="30" as="geometry" />
        </mxCell>
        <mxCell id="Sl9PUTFVlgDmUP3QOlVl-66" value="1,1" style="text;html=1;strokeColor=none;fillColor=none;align=center;verticalAlign=middle;whiteSpace=wrap;rounded=0;" parent="1" vertex="1">
          <mxGeometry x="260" y="322.5" width="60" height="30" as="geometry" />
        </mxCell>
        <mxCell id="Sl9PUTFVlgDmUP3QOlVl-67" value="1,1" style="text;html=1;strokeColor=none;fillColor=none;align=center;verticalAlign=middle;whiteSpace=wrap;rounded=0;" parent="1" vertex="1">
          <mxGeometry x="300" y="570" width="60" height="30" as="geometry" />
        </mxCell>
        <mxCell id="Sl9PUTFVlgDmUP3QOlVl-68" value="0,n" style="text;html=1;strokeColor=none;fillColor=none;align=center;verticalAlign=middle;whiteSpace=wrap;rounded=0;" parent="1" vertex="1">
          <mxGeometry x="130" y="490" width="60" height="30" as="geometry" />
        </mxCell>
        <mxCell id="Sl9PUTFVlgDmUP3QOlVl-69" value="1,1" style="text;html=1;strokeColor=none;fillColor=none;align=center;verticalAlign=middle;whiteSpace=wrap;rounded=0;" parent="1" vertex="1">
          <mxGeometry x="640" y="523.75" width="60" height="30" as="geometry" />
        </mxCell>
        <mxCell id="Sl9PUTFVlgDmUP3QOlVl-70" value="1,n" style="text;html=1;strokeColor=none;fillColor=none;align=center;verticalAlign=middle;whiteSpace=wrap;rounded=0;" parent="1" vertex="1">
          <mxGeometry x="470" y="503.75" width="60" height="30" as="geometry" />
        </mxCell>
        <mxCell id="Sl9PUTFVlgDmUP3QOlVl-71" value="1,1" style="text;html=1;strokeColor=none;fillColor=none;align=center;verticalAlign=middle;whiteSpace=wrap;rounded=0;" parent="1" vertex="1">
          <mxGeometry x="125" y="582.5" width="60" height="30" as="geometry" />
        </mxCell>
        <mxCell id="Sl9PUTFVlgDmUP3QOlVl-72" value="1,n" style="text;html=1;strokeColor=none;fillColor=none;align=center;verticalAlign=middle;whiteSpace=wrap;rounded=0;" parent="1" vertex="1">
          <mxGeometry x="20" y="567.5" width="60" height="30" as="geometry" />
        </mxCell>
      </root>
    </mxGraphModel>
  </diagram>
</mxfile>
